HIERARCHY
ROOT pelvis
{
	OFFSET 0.169014 94.548622 1.830722
	CHANNELS 6 Xposition Yposition Zposition Xrotation Yrotation Zrotation
	JOINT spine01
	{
		OFFSET 0.698717 10.103035 1.059581
		CHANNELS 6 Xposition Yposition Zposition Xrotation Yrotation Zrotation
		JOINT spine02
		{
			OFFSET 0.259143 10.096214 0.823282
			CHANNELS 6 Xposition Yposition Zposition Xrotation Yrotation Zrotation
			JOINT spine03
			{
				OFFSET -0.024364 9.007729 1.885798
				CHANNELS 6 Xposition Yposition Zposition Xrotation Yrotation Zrotation
				JOINT neck
				{
					OFFSET -0.336366 15.635925 6.299266
					CHANNELS 6 Xposition Yposition Zposition Xrotation Yrotation Zrotation
					JOINT head
					{
						OFFSET 0.078330 8.201874 5.297731
						CHANNELS 6 Xposition Yposition Zposition Xrotation Yrotation Zrotation
						End Site
						{
							OFFSET 0.000000 1.975693 0.000000
						}
					}
				}
				JOINT clavicle_L
				{
					OFFSET 4.141592 11.102188 2.682955
					CHANNELS 6 Xposition Yposition Zposition Xrotation Yrotation Zrotation
					JOINT upperarm_L
					{
						OFFSET 9.966952 -0.040100 -4.256137
						CHANNELS 6 Xposition Yposition Zposition Xrotation Yrotation Zrotation
						JOINT lowerarm_L
						{
							OFFSET 3.613857 -14.098366 -23.734447
							CHANNELS 6 Xposition Yposition Zposition Xrotation Yrotation Zrotation
							JOINT hand_L
							{
								OFFSET 2.960070 -19.700546 20.140608
								CHANNELS 6 Xposition Yposition Zposition Xrotation Yrotation Zrotation
								JOINT thumb01_L
								{
									OFFSET -2.477608 0.636780 3.035378
									CHANNELS 6 Xposition Yposition Zposition Xrotation Yrotation Zrotation
									JOINT thumb02_L
									{
										OFFSET -2.807817 0.071220 3.081704
										CHANNELS 6 Xposition Yposition Zposition Xrotation Yrotation Zrotation
										JOINT thumb03_L
										{
											OFFSET -2.029701 -0.787231 2.643455
											CHANNELS 6 Xposition Yposition Zposition Xrotation Yrotation Zrotation
											End Site
											{
												OFFSET 0.000000 1.975693 0.000000
											}
										}
									}
								}
								JOINT index00_L
								{
									OFFSET -1.262730 -2.096352 9.075534
									CHANNELS 6 Xposition Yposition Zposition Xrotation Yrotation Zrotation
									JOINT index01_L
									{
										OFFSET -3.420704 -1.319885 0.269393
										CHANNELS 6 Xposition Yposition Zposition Xrotation Yrotation Zrotation
										JOINT index02_L
										{
											OFFSET -0.789450 0.971245 -2.597244
											CHANNELS 6 Xposition Yposition Zposition Xrotation Yrotation Zrotation
											JOINT index03_L
											{
												OFFSET -0.655169 0.806038 -2.155467
												CHANNELS 6 Xposition Yposition Zposition Xrotation Yrotation Zrotation
												End Site
												{
													OFFSET 0.000000 1.975693 0.000000
												}
											}
										}
									}
								}
								JOINT middle00_L
								{
									OFFSET 0.109446 -3.968735 8.667327
									CHANNELS 6 Xposition Yposition Zposition Xrotation Yrotation Zrotation
									JOINT middle01_L
									{
										OFFSET -3.475592 -1.262253 0.060498
										CHANNELS 6 Xposition Yposition Zposition Xrotation Yrotation Zrotation
										JOINT middle02_L
										{
											OFFSET -0.957893 0.999863 -2.605855
											CHANNELS 6 Xposition Yposition Zposition Xrotation Yrotation Zrotation
											JOINT middle03_L
											{
												OFFSET -0.919914 0.960220 -2.502536
												CHANNELS 6 Xposition Yposition Zposition Xrotation Yrotation Zrotation
												End Site
												{
													OFFSET 0.000000 1.975693 0.000000
												}
											}
										}
									}
								}
								JOINT ring00_L
								{
									OFFSET 0.800495 -5.360634 7.549499
									CHANNELS 6 Xposition Yposition Zposition Xrotation Yrotation Zrotation
									JOINT ring01_L
									{
										OFFSET -2.953804 -1.087936 -0.197893
										CHANNELS 6 Xposition Yposition Zposition Xrotation Yrotation Zrotation
										JOINT ring02_L
										{
											OFFSET -0.733482 1.353210 -2.502174
											CHANNELS 6 Xposition Yposition Zposition Xrotation Yrotation Zrotation
											JOINT ring03_L
											{
												OFFSET -0.661024 1.219536 -2.254997
												CHANNELS 6 Xposition Yposition Zposition Xrotation Yrotation Zrotation
												End Site
												{
													OFFSET 0.000000 1.975693 0.000000
												}
											}
										}
									}
								}
								JOINT pinky00_L
								{
									OFFSET 1.146339 -6.712601 5.796784
									CHANNELS 6 Xposition Yposition Zposition Xrotation Yrotation Zrotation
									JOINT pinky01_L
									{
										OFFSET -3.388973 -1.086281 -0.542989
										CHANNELS 6 Xposition Yposition Zposition Xrotation Yrotation Zrotation
										JOINT pinky02_L
										{
											OFFSET -0.059944 1.284332 -1.678310
											CHANNELS 6 Xposition Yposition Zposition Xrotation Yrotation Zrotation
											JOINT pinky03_L
											{
												OFFSET -0.056017 1.200195 -1.568365
												CHANNELS 6 Xposition Yposition Zposition Xrotation Yrotation Zrotation
												End Site
												{
													OFFSET 0.000000 1.975693 0.000000
												}
											}
										}
									}
								}
							}
						}
					}
				}
				JOINT clavicle_R
				{
					OFFSET -4.887079 10.407104 3.926708
					CHANNELS 6 Xposition Yposition Zposition Xrotation Yrotation Zrotation
					JOINT upperarm_R
					{
						OFFSET -10.596522 -2.167160 -0.694348
						CHANNELS 6 Xposition Yposition Zposition Xrotation Yrotation Zrotation
						JOINT lowerarm_R
						{
							OFFSET -12.596228 -20.191971 -14.448739
							CHANNELS 6 Xposition Yposition Zposition Xrotation Yrotation Zrotation
							JOINT hand_R
							{
								OFFSET 4.546652 -18.436302 21.022581
								CHANNELS 6 Xposition Yposition Zposition Xrotation Yrotation Zrotation
								JOINT pinky00_R
								{
									OFFSET 0.916258 -7.805786 4.264650
									CHANNELS 6 Xposition Yposition Zposition Xrotation Yrotation Zrotation
									JOINT pinky01_R
									{
										OFFSET 3.177591 -0.090401 -1.689606
										CHANNELS 6 Xposition Yposition Zposition Xrotation Yrotation Zrotation
										JOINT pinky02_R
										{
											OFFSET -0.882711 1.569122 -1.108377
											CHANNELS 6 Xposition Yposition Zposition Xrotation Yrotation Zrotation
											JOINT pinky03_R
											{
												OFFSET -0.824884 1.466331 -1.035769
												CHANNELS 6 Xposition Yposition Zposition Xrotation Yrotation Zrotation
												End Site
												{
													OFFSET 0.000000 1.975693 0.000000
												}
											}
										}
									}
								}
								JOINT ring00_R
								{
									OFFSET 1.498703 -6.783997 6.171471
									CHANNELS 6 Xposition Yposition Zposition Xrotation Yrotation Zrotation
									JOINT ring01_R
									{
										OFFSET 2.934719 -0.568413 -1.006014
										CHANNELS 6 Xposition Yposition Zposition Xrotation Yrotation Zrotation
										JOINT ring02_R
										{
											OFFSET -0.280916 1.975632 -2.155922
											CHANNELS 6 Xposition Yposition Zposition Xrotation Yrotation Zrotation
											JOINT ring03_R
											{
												OFFSET -0.253166 1.780472 -1.942949
												CHANNELS 6 Xposition Yposition Zposition Xrotation Yrotation Zrotation
												End Site
												{
													OFFSET 0.000000 1.975693 0.000000
												}
											}
										}
									}
								}
								JOINT middle00_R
								{
									OFFSET 2.268444 -5.546928 7.413095
									CHANNELS 6 Xposition Yposition Zposition Xrotation Yrotation Zrotation
									JOINT middle01_R
									{
										OFFSET 3.477184 -0.965752 -0.808220
										CHANNELS 6 Xposition Yposition Zposition Xrotation Yrotation Zrotation
										JOINT middle02_R
										{
											OFFSET 0.113609 1.653267 -2.441631
											CHANNELS 6 Xposition Yposition Zposition Xrotation Yrotation Zrotation
											JOINT middle03_R
											{
												OFFSET 0.109104 1.587715 -2.344824
												CHANNELS 6 Xposition Yposition Zposition Xrotation Yrotation Zrotation
												End Site
												{
													OFFSET 0.000000 1.975693 0.000000
												}
											}
										}
									}
								}
								JOINT index00_R
								{
									OFFSET 3.486303 -3.601868 7.950354
									CHANNELS 6 Xposition Yposition Zposition Xrotation Yrotation Zrotation
									JOINT index01_R
									{
										OFFSET 3.338889 -1.386688 -0.666956
										CHANNELS 6 Xposition Yposition Zposition Xrotation Yrotation Zrotation
										JOINT index02_R
										{
											OFFSET 0.041311 1.551674 -2.429575
											CHANNELS 6 Xposition Yposition Zposition Xrotation Yrotation Zrotation
											JOINT index03_R
											{
												OFFSET 0.034285 1.287743 -2.016315
												CHANNELS 6 Xposition Yposition Zposition Xrotation Yrotation Zrotation
												End Site
												{
													OFFSET 0.000000 1.975693 0.000000
												}
											}
										}
									}
								}
								JOINT thumb01_R
								{
									OFFSET 3.009747 0.407600 2.553469
									CHANNELS 6 Xposition Yposition Zposition Xrotation Yrotation Zrotation
									JOINT thumb02_R
									{
										OFFSET 3.476145 -0.561836 2.233055
										CHANNELS 6 Xposition Yposition Zposition Xrotation Yrotation Zrotation
										JOINT thumb03_R
										{
											OFFSET 2.668459 -1.166939 1.801170
											CHANNELS 6 Xposition Yposition Zposition Xrotation Yrotation Zrotation
											End Site
											{
												OFFSET 0.000000 1.975693 0.000000
											}
										}
									}
								}
							}
						}
					}
				}
			}
		}
	}
	JOINT thigh_L
	{
		OFFSET 7.631982 -7.069824 -2.698647
		CHANNELS 6 Xposition Yposition Zposition Xrotation Yrotation Zrotation
		JOINT calf_L
		{
			OFFSET -1.063418 -36.521793 25.176329
			CHANNELS 6 Xposition Yposition Zposition Xrotation Yrotation Zrotation
			JOINT foot_L
			{
				OFFSET -4.580702 -14.933758 -41.698097
				CHANNELS 6 Xposition Yposition Zposition Xrotation Yrotation Zrotation
				JOINT toes_L
				{
					OFFSET 2.223491 -13.624777 -0.573416
					CHANNELS 6 Xposition Yposition Zposition Xrotation Yrotation Zrotation
					End Site
					{
						OFFSET 0.000000 1.975697 0.000000
					}
				}
			}
		}
	}
	JOINT thigh_R
	{
		OFFSET -8.721762 -6.042137 -1.713333
		CHANNELS 6 Xposition Yposition Zposition Xrotation Yrotation Zrotation
		JOINT calf_R
		{
			OFFSET 1.701340 -42.605320 12.276593
			CHANNELS 6 Xposition Yposition Zposition Xrotation Yrotation Zrotation
			JOINT foot_R
			{
				OFFSET 0.852734 -35.078148 -27.413845
				CHANNELS 6 Xposition Yposition Zposition Xrotation Yrotation Zrotation
				JOINT toes_R
				{
					OFFSET 0.295880 -10.569359 8.894255
					CHANNELS 6 Xposition Yposition Zposition Xrotation Yrotation Zrotation
					End Site
					{
						OFFSET 0.000000 1.975696 0.000000
					}
				}
			}
		}
	}
}
MOTION
Frames: 4
Frame Time: 0.033333
0.612432 96.792412 3.551387 0.020217 -0.766548 1.003273 0.698716 10.103034 1.059582 -0.370881 1.365642 -0.177907 0.259143 10.096217 0.823281 -0.818150 2.478149 -0.039609 -0.024364 9.007742 1.885805 -0.892947 2.419026 0.424856 -0.336367 15.635976 6.299263 -0.194247 -0.890206 -1.071204 0.078330 8.201866 5.297728 2.407164 -4.186876 -0.531799 4.141594 11.102182 2.682958 0.137654 0.465705 0.900947 9.966950 -0.040062 -4.256141 3.163903 -0.993464 2.454652 3.613858 -14.098344 -23.734446 7.455247 -1.196408 0.123886 2.960064 -19.700546 20.140608 0.257001 -1.437325 1.742700 -2.477609 0.636799 3.035375 0.000008 -0.000025 -0.000012 -2.807819 0.071206 3.081703 0.000002 0.000027 -0.000024 -2.029698 -0.787209 2.643453 0.000001 0.000002 0.000001 -1.262739 -2.096359 9.075531 -0.459556 1.293499 0.606688 -3.420700 -1.319890 0.269386 -0.521446 1.257230 0.633384 -0.789441 0.971222 -2.597250 -0.000003 0.000003 -0.000000 -0.655168 0.806023 -2.155466 0.000001 0.000001 0.000001 0.109442 -3.968723 8.667325 -0.461799 1.273347 0.646673 -3.475593 -1.262274 0.060497 -0.476129 1.260215 0.662269 -0.957897 0.999863 -2.605862 0.000000 0.000000 0.000001 -0.919913 0.960220 -2.502537 0.000000 0.000000 0.000000 0.800501 -5.360644 7.549506 -0.492588 1.173788 0.796193 -2.953806 -1.087947 -0.197904 -0.475402 1.187554 0.785989 -0.733473 1.353203 -2.502177 -0.000001 0.000002 -0.000001 -0.661019 1.219536 -2.254998 0.000000 0.000000 -0.000000 1.146339 -6.712579 5.796789 -0.502488 1.084808 0.908558 -3.388973 -1.086311 -0.542988 -0.380633 1.143654 0.894582 -0.059940 1.284301 -1.678308 -0.000001 0.000003 0.000000 -0.056017 1.200188 -1.568364 0.000000 0.000000 -0.000001 -4.887080 10.407096 3.926706 -0.114525 1.954906 -0.203373 -10.596522 -2.167124 -0.694351 -6.358487 1.449158 2.418460 -12.596235 -20.191952 -14.448743 -3.330588 -1.135604 0.883562 4.546655 -18.436342 21.022581 -1.212539 -0.293948 0.625801 0.916253 -7.805787 4.264657 0.294557 0.507512 0.534195 3.177597 -0.090409 -1.689606 0.228485 0.522119 0.552837 -0.882711 1.569130 -1.108376 0.000001 0.000000 -0.000000 -0.824881 1.466339 -1.035774 -0.000001 0.000001 -0.000001 1.498695 -6.784019 6.171473 0.270358 0.563180 0.489361 2.934722 -0.568444 -1.006005 0.264755 0.567080 0.488475 -0.280918 1.975631 -2.155925 0.000001 0.000005 -0.000001 -0.253166 1.780471 -1.942952 0.000000 0.000000 0.000001 2.268439 -5.546942 7.413092 0.234334 0.625165 0.429268 3.477182 -0.965779 -0.808229 0.277276 0.611763 0.423467 0.113610 1.653252 -2.441629 -0.000002 0.000000 -0.000000 0.109102 1.587707 -2.344825 0.000001 0.000000 -0.000001 3.486305 -3.601892 7.950352 0.227378 0.641105 0.409002 3.338886 -1.386686 -0.666961 0.363063 0.593337 0.382761 0.041307 1.551643 -2.429577 -0.000001 -0.000005 0.000002 0.034286 1.287750 -2.016315 0.000000 0.000002 -0.000001 3.009746 0.407579 2.553466 0.099545 -0.010144 -0.097305 3.476148 -0.561852 2.233055 0.358001 0.006332 -0.528922 2.668452 -1.166966 1.801165 -0.000029 -0.000039 -0.000031 7.631983 -7.069821 -2.698641 -8.583757 -1.069708 1.516541 -1.063418 -36.521805 25.176331 -12.877149 1.339114 -2.493724 -4.580702 -14.933757 -41.698097 -3.792366 11.616076 -5.923690 2.223492 -13.624783 -0.573413 4.218441 -6.542879 11.726002 -8.721760 -6.042098 -1.713329 19.470772 -3.260764 -1.263227 1.701341 -42.605331 12.276586 -17.401304 3.385981 1.387810 0.852734 -35.078144 -27.413845 5.793704 0.323095 -0.013236 0.295881 -10.569360 8.894252 -7.010617 0.969108 -0.495785 
0.918123 100.290993 5.000010 -0.255034 0.030843 2.208202 0.698716 10.103048 1.059582 -0.819144 2.537643 -0.778876 0.259143 10.096204 0.823281 -1.771499 4.712334 -0.170979 -0.024365 9.007738 1.885803 -1.936095 4.608525 0.724482 -0.336365 15.635961 6.299270 0.859349 -2.708283 -1.418653 0.078330 8.201857 5.297729 3.847290 -8.312303 -1.452000 4.141594 11.102201 2.682952 0.292799 0.962350 2.002477 9.966951 -0.040068 -4.256145 6.259979 -3.782202 4.717390 3.613863 -14.098351 -23.734446 15.114635 -2.027663 0.793438 2.960063 -19.700550 20.140612 0.170463 -1.868820 2.525583 -2.477607 0.636798 3.035376 0.000008 -0.000021 -0.000011 -2.807824 0.071190 3.081707 -0.000006 -0.000032 -0.000081 -2.029690 -0.787216 2.643458 -0.000000 -0.000002 -0.000002 -1.262732 -2.096375 9.075535 -1.612895 4.357618 2.098206 -3.420701 -1.319889 0.269385 -1.823426 4.230762 2.192760 -0.789438 0.971237 -2.597250 -0.000002 0.000006 0.000000 -0.655161 0.806030 -2.155467 0.000000 0.000003 -0.000000 0.109444 -3.968724 8.667327 -1.617865 4.288850 2.234756 -3.475593 -1.262271 0.060491 -1.672557 4.241955 2.286675 -0.957902 0.999848 -2.605860 -0.000001 0.000001 0.000000 -0.919918 0.960236 -2.502537 -0.000000 0.000000 0.000002 0.800498 -5.360645 7.549508 -1.739501 3.943108 2.736825 -2.953801 -1.087919 -0.197900 -1.676592 3.991872 2.703070 -0.733481 1.353172 -2.502169 0.000001 0.000005 0.000000 -0.661026 1.219543 -2.254996 0.000001 -0.000002 -0.000002 1.146343 -6.712595 5.796789 -1.771411 3.638321 3.116367 -3.388976 -1.086295 -0.542976 -1.361740 3.845548 3.061790 -0.059939 1.284302 -1.678315 0.000001 -0.000002 -0.000001 -0.056021 1.200180 -1.568369 0.000001 -0.000002 -0.000001 -4.887081 10.407091 3.926709 -0.084345 2.632548 0.362380 -10.596521 -2.167142 -0.694348 -7.525995 1.231368 2.675348 -12.596248 -20.191967 -14.448747 -7.239207 -2.879954 4.490836 4.546657 -18.436314 21.022575 -4.864436 -1.071956 6.072359 0.916246 -7.805788 4.264648 0.998549 1.761597 1.830111 3.177590 -0.090409 -1.689611 0.766598 1.809342 1.897361 -0.882710 1.569106 -1.108378 0.000004 -0.000003 -0.000000 -0.824882 1.466324 -1.035766 0.000001 0.000002 -0.000000 1.498694 -6.783994 6.171469 0.921055 1.952644 1.670827 2.934723 -0.568432 -1.006021 0.889121 1.971995 1.666429 -0.280913 1.975623 -2.155928 0.000004 0.000009 -0.000004 -0.253167 1.780464 -1.942947 0.000001 0.000002 -0.000002 2.268432 -5.546935 7.413094 0.787679 2.164373 1.468705 3.477180 -0.965780 -0.808233 0.938115 2.115185 1.450392 0.113611 1.653259 -2.441636 0.000001 0.000000 -0.000001 0.109100 1.587700 -2.344825 0.000002 0.000002 -0.000001 3.486295 -3.601860 7.950349 0.765116 2.217677 1.400248 3.338886 -1.386710 -0.666962 1.235358 2.055536 1.303497 0.041308 1.551635 -2.429577 0.000003 -0.000005 -0.000000 0.034284 1.287743 -2.016315 0.000001 -0.000002 0.000002 3.009742 0.407583 2.553461 0.343066 -0.035541 -0.335530 3.476150 -0.561847 2.233061 1.236368 0.007371 -1.822825 2.668457 -1.166958 1.801169 0.000047 -0.000017 -0.000030 7.631982 -7.069818 -2.698642 -7.443678 -3.254049 1.281377 -1.063416 -36.521805 25.176329 -37.067467 5.417489 0.607270 -4.580702 -14.933749 -41.698097 -0.552641 4.972573 -2.646411 2.223493 -13.624780 -0.573413 -0.629357 -5.730298 4.916163 -8.721759 -6.042120 -1.713332 36.401179 -8.278854 -2.764061 1.701340 -42.605335 12.276599 -36.989316 8.344623 5.934115 0.852733 -35.078144 -27.413845 33.073555 -0.906393 10.014878 0.295881 -10.569363 8.894258 -21.639979 -1.328659 -11.545455 
1.255183 103.141685 6.986887 -0.115750 2.351413 3.879549 0.698719 10.103041 1.059581 -1.464670 3.066122 -1.618971 0.259144 10.096209 0.823276 -3.091287 6.254553 -0.686720 -0.024365 9.007741 1.885800 -3.347333 6.170845 0.538569 -0.336366 15.635942 6.299268 1.869008 -3.641130 -2.049646 0.078329 8.201876 5.297736 7.262248 -12.134883 -0.568283 4.141595 11.102189 2.682962 0.424728 1.436881 3.098083 9.966954 -0.040089 -4.256138 9.135644 -7.244246 6.762336 3.613859 -14.098341 -23.734444 21.556150 -2.480535 1.589670 2.960060 -19.700563 20.140604 -0.102558 -1.660839 2.547680 -2.477612 0.636799 3.035369 0.000008 -0.000023 -0.000012 -2.807819 0.071206 3.081697 0.000005 0.000031 -0.000049 -2.029689 -0.787201 2.643453 -0.000003 0.000000 0.000000 -1.262736 -2.096363 9.075525 -3.103123 7.972906 3.970926 -3.420703 -1.319910 0.269390 -3.492925 7.730385 4.153642 -0.789438 0.971238 -2.597249 -0.000002 0.000003 -0.000001 -0.655166 0.806038 -2.155464 0.000002 0.000001 -0.000001 0.109438 -3.968718 8.667316 -3.116006 7.843478 4.221842 -3.475603 -1.262276 0.060505 -3.220146 7.753352 4.318796 -0.957895 0.999856 -2.605865 -0.000001 0.000000 -0.000001 -0.919913 0.960220 -2.502537 -0.000001 0.000001 -0.000001 0.800492 -5.360617 7.549495 -3.358142 7.189741 5.143985 -2.953809 -1.087913 -0.197908 -3.240738 7.282865 5.080320 -0.733474 1.353202 -2.502168 0.000002 0.000002 0.000001 -0.661016 1.219536 -2.255001 0.000002 0.000000 0.000001 1.146333 -6.712596 5.796777 -3.420760 6.618279 5.836895 -3.388966 -1.086289 -0.542989 -2.672326 7.018150 5.721679 -0.059943 1.284302 -1.678307 -0.000000 0.000003 0.000000 -0.056021 1.200180 -1.568359 -0.000001 0.000000 -0.000001 -4.887079 10.407085 3.926712 -0.050022 1.883786 0.336836 -10.596530 -2.167134 -0.694353 -8.671012 1.882239 2.932587 -12.596223 -20.191975 -14.448730 -11.257803 -3.716168 7.662780 4.546655 -18.436325 21.022581 -8.121276 0.366854 12.092535 0.916250 -7.805785 4.264633 1.846776 3.355663 3.431577 3.177585 -0.090411 -1.689611 1.398921 3.440023 3.567158 -0.882706 1.569123 -1.108372 -0.000001 0.000002 -0.000001 -0.824886 1.466324 -1.035762 0.000001 -0.000002 -0.000002 1.498704 -6.783999 6.171472 1.697162 3.712997 3.131533 2.934731 -0.568405 -1.005999 1.631825 3.750520 3.122741 -0.280906 1.975637 -2.155920 0.000001 0.000010 -0.000002 -0.253166 1.780448 -1.942955 0.000005 -0.000003 -0.000002 2.268446 -5.546938 7.413082 1.441077 4.110336 2.749850 3.477189 -0.965763 -0.808216 1.729424 4.015761 2.714475 0.113610 1.653269 -2.441632 -0.000002 0.000003 0.000002 0.109110 1.587731 -2.344817 -0.000001 -0.000003 -0.000001 3.486303 -3.601863 7.950348 1.401741 4.206737 2.624091 3.338886 -1.386695 -0.666951 2.296836 3.907350 2.427359 0.041303 1.551651 -2.429572 -0.000001 -0.000003 -0.000000 0.034280 1.287743 -2.016312 -0.000002 0.000000 0.000001 3.009757 0.407581 2.553461 0.648336 -0.068693 -0.634255 3.476151 -0.561835 2.233071 2.340634 -0.020514 -3.442378 2.668453 -1.166984 1.801166 -0.000002 -0.000003 0.000002 7.631983 -7.069840 -2.698637 -0.824977 -7.593560 -1.049806 -1.063415 -36.521797 25.176334 -69.237983 4.124379 4.673157 -4.580699 -14.933754 -41.698101 2.933777 5.691992 -3.203505 2.223491 -13.624777 -0.573422 -2.193849 -5.340000 2.678458 -8.721761 -6.042143 -1.713326 43.588126 -12.988371 -2.265701 1.701340 -42.605324 12.276609 -38.280492 10.730034 5.756569 0.852736 -35.078144 -27.413847 47.929510 0.811952 16.450138 0.295882 -10.569357 8.894246 -6.299020 -7.334956 -11.267392 
1.349648 103.449554 8.787039 0.134230 2.878191 4.036706 0.698718 10.103041 1.059580 -2.057552 3.394549 -2.024010 0.259144 10.096212 0.823286 -4.301874 7.398177 -0.970787 -0.024364 9.007761 1.885811 -4.628943 7.303278 0.505936 -0.336366 15.635952 6.299264 4.463905 -4.751281 -1.821768 0.078332 8.201873 5.297730 7.622959 -13.633812 -0.784421 4.141594 11.102180 2.682951 0.492272 1.808026 3.854926 9.966955 -0.040061 -4.256136 11.371515 -10.272485 8.325201 3.613860 -14.098328 -23.734438 25.582559 -2.590908 2.073001 2.960063 -19.700537 20.140612 -0.399834 -1.157574 1.985024 -2.477611 0.636810 3.035371 0.000000 -0.000002 0.000001 -2.807824 0.071190 3.081704 0.000005 0.000027 -0.000024 -2.029703 -0.787208 2.643451 -0.000001 0.000002 0.000002 -1.262735 -2.096353 9.075531 -4.455616 10.962157 5.628143 -3.420700 -1.319927 0.269394 -4.997248 10.616173 5.890477 -0.789440 0.971245 -2.597251 -0.000002 0.000002 -0.000000 -0.655165 0.806014 -2.155468 0.000001 0.000001 0.000001 0.109442 -3.968725 8.667322 -4.478671 10.779214 5.974375 -3.475594 -1.262284 0.060504 -4.625229 10.650776 6.110435 -0.957895 0.999863 -2.605857 -0.000002 0.000003 -0.000000 -0.919920 0.960229 -2.502532 -0.000001 0.000001 -0.000000 0.800498 -5.360638 7.549498 -4.830242 9.854609 7.247163 -2.953801 -1.087926 -0.197900 -4.667292 9.987460 7.157309 -0.733468 1.353196 -2.502172 -0.000001 0.000003 0.000001 -0.661022 1.219528 -2.254996 -0.000000 0.000000 0.000001 1.146344 -6.712578 5.796780 -4.920516 9.051438 8.196906 -3.388972 -1.086294 -0.542990 -3.892274 9.626484 8.022739 -0.059943 1.284302 -1.678306 -0.000002 -0.000007 -0.000000 -0.056022 1.200195 -1.568362 0.000001 0.000000 0.000002 -4.887080 10.407107 3.926702 -0.032954 2.008306 0.542331 -10.596531 -2.167131 -0.694349 -9.165809 2.996630 2.663054 -12.596233 -20.191965 -14.448735 -14.087725 -2.023795 8.119979 4.546660 -18.436327 21.022587 -16.284310 5.238057 16.941477 0.916246 -7.805779 4.264644 2.595868 4.862772 4.908107 3.177586 -0.090399 -1.689605 1.946661 4.976793 5.111524 -0.882717 1.569114 -1.108380 0.000002 -0.000003 0.000002 -0.824885 1.466332 -1.035763 -0.000001 -0.000003 -0.000000 1.498696 -6.783992 6.171478 2.381750 5.371641 4.475160 2.934726 -0.568436 -1.006027 2.285457 5.424545 4.464706 -0.280934 1.975631 -2.155916 0.000001 0.000005 -0.000001 -0.253159 1.780472 -1.942944 0.000002 0.000003 0.000001 2.268441 -5.546947 7.413097 2.010899 5.940244 3.924806 3.477185 -0.965774 -0.808219 2.431377 5.803559 3.873092 0.113617 1.653266 -2.441641 0.000003 0.000002 -0.000001 0.109106 1.587715 -2.344828 0.000001 -0.000002 0.000002 3.486306 -3.601878 7.950350 1.958517 6.073283 3.748695 3.338878 -1.386704 -0.666967 3.256473 5.652755 3.447191 0.041302 1.551635 -2.429575 0.000003 0.000000 0.000003 0.034279 1.287743 -2.016318 -0.000001 0.000002 0.000003 3.009753 0.407586 2.553460 0.932607 -0.101125 -0.912448 3.476154 -0.561855 2.233072 3.372764 -0.075591 -4.949554 2.668453 -1.166967 1.801171 -0.000027 -0.000036 -0.000026 7.631983 -7.069806 -2.698645 -0.759579 -10.292146 -0.773123 -1.063417 -36.521793 25.176336 -80.807524 1.816136 5.011055 -4.580699 -14.933749 -41.698093 -2.529176 6.004063 -2.711914 2.223491 -13.624781 -0.573419 -1.574158 -5.947538 3.973487 -8.721762 -6.042132 -1.713329 45.754088 -12.252321 -3.517980 1.701340 -42.605328 12.276589 -26.172279 6.779089 4.024811 0.852735 -35.078140 -27.413845 47.599967 1.065011 14.359250 0.295881 -10.569362 8.894258 4.025935 -10.471878 -2.423753 
